<?xml version="1.0" encoding="utf-8"?>
<!-- Generator: Adobe Illustrator 24.0.1, SVG Export Plug-In . SVG Version: 6.00 Build 0)  -->
<svg version="1.1" id="Capa_1" xmlns="http://www.w3.org/2000/svg" xmlns:xlink="http://www.w3.org/1999/xlink" x="0px" y="0px"
	 viewBox="0 0 208.9 9.7" style="enable-background:new 0 0 208.9 9.7;" xml:space="preserve">
<style type="text/css">
	.st0{fill:#D5897F;}
</style>
<g>
	<g>
		<g>
			<g>
				<g>
					<path class="st0" d="M205.7,2.4c0.3,0,0.2-0.4,0.2-0.5C205.4,2.1,205.7,2.5,205.7,2.4z"/>
					<polygon class="st0" points="200.8,3.4 200.8,3.2 200.1,3.6 					"/>
					<path class="st0" d="M196.2,3.4c0.4,0.7,1.7-0.1,2.5,0.1l0.1,0.2l0.4-0.6C198.2,3.2,196.9,3.6,196.2,3.4z"/>
					<path class="st0" d="M193.7,1.8c0.2,0.3-0.5,0.2,0.6,0.1c-0.1,0-0.1,0-0.1-0.1C194.1,1.8,193.9,1.8,193.7,1.8z"/>
					<path class="st0" d="M194.2,1.8C194.7,1.8,193.9,1.6,194.2,1.8L194.2,1.8z"/>
					<path class="st0" d="M191.9,2l0.6-0.2c-0.1-0.2-0.7-0.2-0.5-0.3C191.4,1.6,191.6,1.7,191.9,2z"/>
					<path class="st0" d="M191.3,2.5l0.3-0.1C191.6,2.3,191.5,2.3,191.3,2.5z"/>
					<path class="st0" d="M192.4,2.2l-0.7,0.2c0.1,0.1,0.1,0.3,0.3-0.1C191.9,2.5,192.1,2.3,192.4,2.2z"/>
					<path class="st0" d="M192.8,2.3c0.4,0.2,0.8,0.3,0.2,0.5C194.2,2.7,194,2.2,192.8,2.3z"/>
					<path class="st0" d="M195.9,4.1l0.5,0.2l0.4-0.2C196.6,4.2,195.9,3.9,195.9,4.1z"/>
					<path class="st0" d="M188,1.6c0,0.2,0.2,0.4,0.3,0.6l0.5-0.2C188.4,2,188,1.9,188,1.6z"/>
					<path class="st0" d="M188.2,2.2l-0.7,0.3C188.1,2.5,188.3,2.4,188.2,2.2z"/>
					<polygon class="st0" points="191.2,3.3 192.4,2.8 191,3.3 					"/>
					<polygon class="st0" points="185.3,1.6 185.7,1.3 184.9,1.8 					"/>
					<path class="st0" d="M183.5,1.7c0.3-0.3-0.4-0.5-0.1-0.7c-0.5,0.1-0.9,0.3-1.3,0.5C182.5,1.4,182.9,1.4,183.5,1.7z"/>
					<path class="st0" d="M181.5,1.9c0.2-0.1,0.4-0.2,0.6-0.3C181.9,1.6,181.7,1.7,181.5,1.9z"/>
					<path class="st0" d="M186.3,2.4c-0.1-0.1-0.2-0.3-0.6-0.4l0.3,0.4C186.1,2.4,186.2,2.4,186.3,2.4z"/>
					<path class="st0" d="M186,2.4L186,2.4c-0.3,0-0.5,0-0.6,0C185.5,2.4,185.7,2.4,186,2.4z"/>
					<path class="st0" d="M186.4,2.4C186.4,2.4,186.3,2.4,186.4,2.4C186.3,2.5,186.4,2.5,186.4,2.4z"/>
					<path class="st0" d="M189.4,2.9c-0.4,0.2-1.3,0.5-0.4,0.9C189.2,3.5,188.7,3.3,189.4,2.9z"/>
					<path class="st0" d="M186.7,3l0.7,0.1c0-0.1-0.1-0.3,0.1-0.4L186.7,3z"/>
					<polygon class="st0" points="186.4,3.1 186.7,3 186.4,2.9 					"/>
					<path class="st0" d="M182.8,2.3c-0.3,0.2-0.7,0.2-1.1,0.2c0.4,0.1,0.9,0.1,1.3,0.1C183,2.5,183.2,2.2,182.8,2.3z"/>
					<path class="st0" d="M184.4,2.4C184.3,2.4,184.3,2.4,184.4,2.4C184.3,2.4,184.4,2.4,184.4,2.4z"/>
					<path class="st0" d="M177.7,2.5C177.8,2.5,177.8,2.5,177.7,2.5C177.8,2.5,177.8,2.5,177.7,2.5L177.7,2.5z"/>
					<path class="st0" d="M183.1,2.7c0.3,0.1,0.5,0,0.7-0.2C183.5,2.6,183.3,2.6,183.1,2.7C183,2.7,182.9,2.7,183.1,2.7z"/>
					<path class="st0" d="M180.4,2.1c0.2,0.1,0.4,0.2,0.6,0.2C180.8,2.2,180.4,1.9,180.4,2.1z"/>
					<path class="st0" d="M184.2,2.3C184.2,2.3,184.2,2.3,184.2,2.3C184.1,2.2,184.1,2.2,184.2,2.3z"/>
					<path class="st0" d="M184.2,2.3c-0.2,0.1-0.3,0.2-0.4,0.3c0.2,0,0.4-0.1,0.5-0.1C184.2,2.4,184.2,2.3,184.2,2.3z"/>
					<path class="st0" d="M176.6,5.2c0.1-0.4,0.9-0.8,1.6-0.3c0.7-0.3,0.2-1.6-0.4-2.3c0,0.2,0,0.3-0.8,0.6c0.3,0.2,1.6,0.5,1,0.9
						c-1,0.2-0.8-0.1-1.3-0.3c0.4,0.5-1.2,0.7-1,1.4l0.9-0.3C176.6,4.9,176.3,5.1,176.6,5.2z"/>
					<path class="st0" d="M179.2,2.6l0.3,0c-0.3-0.1-0.6-0.2-1.1-0.5c-0.5,0.2-0.6,0.3-0.6,0.5l1.5,0.1L179.2,2.6z"/>
					<path class="st0" d="M180.9,2.6c-0.2,0.4-1,0.6-0.5,1.1c0.9,0,0.6-0.4,1.2-0.5C180.1,3.2,182,2.8,180.9,2.6
						c0.3,0,0.5,0,0.8-0.1c-0.3-0.1-0.5-0.1-0.7-0.2c0,0,0,0,0,0l0,0c0,0,0,0,0,0c0.1,0.1,0.1,0.1,0,0.1c0,0,0,0,0,0
						C181,2.4,180.9,2.5,180.9,2.6c-0.4-0.1-0.1-0.1,0.1-0.2c0,0,0,0,0-0.1c0,0,0,0,0,0l-1.4,0.2C179.8,2.6,180.2,2.6,180.9,2.6z"/>
					<path class="st0" d="M188.2,4.7c0,0,0-0.1,0-0.1C188,4.7,188,4.7,188.2,4.7z"/>
					<path class="st0" d="M187.6,4.5c0.1-0.1,0.2-0.2,0.5-0.2c0.3,0.1,0,0.2,0,0.3c0.2-0.1,0.7-0.3,0.1-0.5l-0.1,0.1
						c-0.6-0.1-1.3-0.7-1.2-0.7C187,3.8,187.2,4.1,187.6,4.5z"/>
					<path class="st0" d="M184.2,3.6L183,3.8l0.6,0.4l0-0.2C184.2,4.1,184.1,3.8,184.2,3.6z"/>
					<polygon class="st0" points="177.6,2.3 177.8,1.8 177.1,2.5 					"/>
					<polygon class="st0" points="176,2.3 176.1,1.9 175.7,2.2 					"/>
					<path class="st0" d="M87.8,7.2l-0.4,0.1C87.6,7.3,87.7,7.3,87.8,7.2z"/>
					<path class="st0" d="M90.3,7.3l0.1-0.2C90.3,7.2,90.2,7.3,90.3,7.3z"/>
					<path class="st0" d="M137.6,2.4c-0.5-0.4-1.1-0.9-1-0.5l0.2,0.4C137.1,2.2,137.4,2.3,137.6,2.4z"/>
					<path class="st0" d="M111.3,5c0,0,0.1,0.1,0.2,0.1c0.1-0.1,0.2-0.3,0.3-0.4C111.7,4.8,111.5,4.9,111.3,5z"/>
					<path class="st0" d="M111,6.8l-0.7-0.3C110.4,6.6,110.6,6.7,111,6.8z"/>
					<path class="st0" d="M73.8,7.7l-0.4,0.4C74,8.1,73.7,7.9,73.8,7.7z"/>
					<path class="st0" d="M160,2.5c-0.4-0.2-0.8-0.2-1.1-0.3C159.5,2.5,159.9,2.8,160,2.5z"/>
					<path class="st0" d="M88.8,2.6c-0.2,0.1-0.3,0.2-0.3,0.3C88.7,2.8,88.8,2.7,88.8,2.6z"/>
					<path class="st0" d="M157.6,2.2c0.1,0,0.2,0.1,0.2,0.1c0.3-0.1,0.7-0.1,1-0.1C158.5,2,158.1,1.9,157.6,2.2z"/>
					<path class="st0" d="M23.1,7.3c0,0-0.1,0-0.1-0.1C22.9,7.3,23,7.3,23.1,7.3z"/>
					<path class="st0" d="M8.3,3c0.1,0,0.4,0,0.6,0C8.8,2.9,8.6,2.9,8.3,3z"/>
					<path class="st0" d="M169.8,2.1C170.1,2.1,169.8,2.1,169.8,2.1L169.8,2.1z"/>
					<path class="st0" d="M171.4,3.8c-0.1,0-0.1,0.1-0.1,0.2C171.3,4,171.3,3.9,171.4,3.8z"/>
					<path class="st0" d="M154.3,4.9C154.3,4.9,154.3,4.9,154.3,4.9C154.4,5,154.4,5,154.3,4.9z"/>
					<path class="st0" d="M170.3,2.3c-0.1-0.1-0.3-0.1-0.4-0.1C169.9,2.2,170,2.3,170.3,2.3z"/>
					<path class="st0" d="M170.2,2.1c0.1,0,0.2,0,0.3,0C170.5,2.1,170.5,2.1,170.2,2.1z"/>
					<path class="st0" d="M169.3,2.2c0.2,0,0.4,0,0.5,0c-0.1,0-0.1-0.1-0.1-0.1C169.7,2.1,169.5,2.1,169.3,2.2z"/>
					<path class="st0" d="M50.2,6.2C50.2,6.2,50.2,6.2,50.2,6.2C49.8,6.3,50,6.3,50.2,6.2z"/>
					<path class="st0" d="M129,6.9C129,6.9,129,6.9,129,6.9C129,6.8,129,6.8,129,6.9L129,6.9z"/>
					<path class="st0" d="M127.8,7.2c0.5-0.5,0.8-0.5,1.2-0.4l-0.4-1.3L127.8,7.2z"/>
					<path class="st0" d="M81.6,7.4l0.8,0.4c-1,0.6-1.7,0.4-1,1c0.1-1.4,3.3-0.1,3.4-1.5l0.6,0.3c-0.2,0-0.2,0.1-0.3,0.1
						c1.1,0.7,0.8-1,2.2-0.8c0.5,0.1,0.8,0.3,0.5,0.5l1.1-0.3c0.3,0,0.2,0.3-0.1,0.2L90.4,7l0,0c0.2-0.2,0.8-0.5,1-0.7
						c0.4,0.2-0.2,0.1-0.1,0.3l0.9-0.3c0.4,0.4-0.4,0.7-1,0.6c0.8,1.4,0.8-0.3,2.6,0.5l-0.9,0.2c0.6,0.8,1.2,0.5,2.2,1
						c-0.2-0.3-1.9-1.2-1-1.5c0.3,0.1,0.6,0.2,1.2-0.1c0,0.5,0.5,0.4,1.2,0.3l0,0.6c0.7-0.2,0.6-0.5,1.1-0.8c0.8,0.1,0.9,0.6,1.1,1
						c1.3,0.1-0.9-0.8,0.6-0.9c1,0.2,1.8,0,3-0.4c0.7,0.2-0.1,0.4,0.1,0.6l0.6-0.5c0.2,0,0.1,0.2,0.1,0.2c0.5-0.2,0-0.6,0.9-0.8
						c0.2-0.7,1.8,1,2.8,0.2c0.3,0.2-0.1,0.4,0,0.6c1.5-0.5,1.2-0.4,2.4-1.1l1,0.4c-0.7-0.5,0.2-1,1-1.5c-0.3-0.2-0.5-0.4-0.6-0.5
						l1.3-0.3c0.2,0.1,0,0.3-0.2,0.6c0.1-0.1,0.2-0.1,0.2-0.2c0.5,0.2,0.2,0.6-0.1,1c-0.2-0.1-0.3-0.3-0.5-0.4
						c-0.3,0.4-0.6,0.8-0.6,1.2c0.1-0.1,0.3-0.1,0.4-0.2c-0.1,0.1-0.1,0.2-0.1,0.3c0,0.1,0.2-0.1,0.4-0.2l0.3,0.7l0.1-0.3l1.7,0.4
						c1.2-0.7,2.3-1.8,4.3-2.1c-0.5,0.5-0.1,0.9-0.1,1.5c-0.5-0.7-1.5,0.3-2.6,0.1c0.5,0.1,0.4,0.4,0.3,0.5l1.8-0.6
						c0,0.5,0.4,0.4,0.9,0.6c-0.4-1,1.4-0.7,2.1-1c0,0.3-0.1,0.7-1,0.6c1,0.8,1.3-1.2,2.3-0.5c-0.2,0-0.3,0-0.4,0.1
						c0.5-0.3,1.8-0.1,1.5,0.2l-0.2,0c1.5,0.1,4.5,0,4.7-0.8c0,0.1-0.2,1-0.3,1.2l2.6-2.9c-0.2,0.7,0.7,2.5-0.6,2.9
						c0.4,0.1,0.8,0.2,1.5,0c-0.2-0.1-0.6-1.1-0.3-1.1c0.9,0.8,0.6,0.4,1.7,1.1c-0.4-0.2,0-1.3,0.6-1.3c-0.1,0.2,0,1.1-0.2,1.3
						l1.4-1.1c-0.4,0.2-0.1,1,0.3,1.3c-0.1-0.2,1.2,0,1.6-0.1l-0.6-0.3c1.6,0.2,1.6-1.6,3.2-1.5c-0.2,0.2-0.5,1.4,0.3,1.6
						c0.4-0.6,1.6-2.8,3-3.2l0.3,0.3l1.1-0.4c-0.7,0.9-2.5,2.7-3.6,3.4c0.6,0.3,0.2,0.4,1.1,0.4c0.3,0.3-0.5,0.5-0.7,0.5l2.1,0.2
						c-0.1-0.7,1.6-0.7,1.5-1.2l-2.3,0.7c-0.1-0.7,1.3-1.9,2.8-1.8c0.4,0.3-0.3,1.2-0.2,1.4c0.2-0.2,1.4-0.4,1.5-0.3L144.5,7
						c0.8,0.3,1.3-0.9,2.3-0.2c0.3,0,1,0.9,1.1,0.5c-0.6-0.8-0.7-3.1-0.3-3.7c0.1,0.1,1.8,0.7,2.2,1.1c0.6,0.6-0.8,1.4-0.4,2
						c0-0.2,0.3-0.4,0.5-0.5c0.4,0.2-0.1,0.6,0.6,0.5c0.1-0.7,1.6,0.1,0.4-0.6c0.8-0.2,0.8,0.1,1.7,0.1c-0.3-0.4,0.8-1.5,1.6-1.7
						c0,0.2,0.1,0.4,0.2,0.5c1.6,0.1,2.4,0.4,3.8,0.4c0.1,0.2,0.8,0.4,0.5,0.7c0.2-0.1,0.4-0.4,0.8-0.4c0.9,0.6-1,0.1-0.3,0.8
						c0.1-0.4,1.2-0.5,1.8-0.8c-0.2-0.6-1.5-0.1-2.1,0.1c0-0.8,1.1-1.7,2.6-2.1c1.2-0.2,0.5,0.5,0.7,0.4c2.3,0.1,1.9-1.5,3.8-0.9
						c0.7,0.5,0,1.1,0.2,1.5c-1,0.2-1.5-0.3-2.2-0.3l0.8,0.3c-0.3,0.2-1,0.3-1.3,0.2c0.6,0.5,3.8,0.1,5.6,0.5
						c0.3-0.2,0.8-0.4,0.6-0.6l-0.6,0.1c-0.5-0.4,1-0.6,0.3-0.8c0.7-0.3,1.6-0.8,2.6-0.5l0.2,0.6c0-0.2-0.7-0.4-1-0.2
						c0.4-0.3,1.6,0.8,2.1,0l-0.7-0.4c0.7-0.3,1.7-1,2.6-0.8c-0.4-0.6-0.2,0.1-0.9-0.6c0.6,0.9-2.4,0-1.5,0.9c-0.7-0.8-1.2-0.3-2-1
						c0,0.2,0.3,0.4-0.5,0.3c0,0.1-0.1,0.1-0.2,0.2c0,0,0,0-0.1,0c0,0,0,0,0,0c0,0,0,0,0,0c0.2,0.1,0.3,0.2,0.4,0.3
						c-0.4,0.5-1.6,0.4-2,0.7c-0.5-0.1,0.2-0.2-0.1-0.4L168,3.3c-0.1-0.4-1.2-0.7-0.1-1l-1,0c-0.6-0.3-1.4-0.4-1.9-0.2
						c-0.5-0.1-1.2,0.5-0.8,0.1l-1.5,0.3l0-0.1c-1.5-0.1-3.1,0.7-4.8-0.1c-0.5,0.1-1,0.3-1.9,0.1l-0.2-0.4c-0.7,0.1-2-0.4-2.2,0
						c-0.7-1-3.2-0.2-4.3-0.4l0,0.5c-0.8,0-1.5,0.1-2.5,0.3l0.1,0.4c-0.8,0.4-2.2-0.3-3.5-0.3c0.1-0.2,0.4-0.1,0.7,0
						c-1.6-1-3.4,0.7-4.8,0c-0.4,0.2-0.6,0.1-0.9,0c0,0,0.1,0,0.1,0c0,0-0.1,0-0.1,0c-0.2-0.1-0.3-0.2-0.5-0.2
						c0.2,0.1,0.3,0.2,0.4,0.2c-0.3,0-0.7,0.1-1.1,0.2l-0.2-0.5c0,0-0.1,0-0.1,0c-0.4-0.2-0.3,0.2-0.1,0.6c-0.2,0.1-0.4,0.2-0.5,0.3
						c-0.3-0.8-1.1,0.3-1.5-0.6c-0.3,0.4-2.1,0.3-2.3,1.2c0-0.1-0.1-0.2,0.1-0.2c-0.5-0.1-0.9-0.2-1.3,0L130.7,3l-1,0.8
						c-0.6-0.4-0.9-0.6-0.3-1.1c-1.5,0.7-1.2,0.3-2.4,1l0.1-0.4c-0.4,0-1.2,0.5-1.4,0.2c-1-0.8-4.9-0.1-7.5-0.8
						c0.5,1.2-1.2-0.5-1.3,0.4c-0.1-0.3-0.5-0.4-0.1-0.7c-1.3,0.3-2-0.4-2.9,0.3c-0.1-0.3,0.3-0.4,0.1-0.6c-0.1,0.1-0.4,0.2-0.6,0.1
						c-0.1-0.2,0.2-0.2,0.4-0.4c-1.3,0-1.5,0.9-1.6,1.7c-0.7-0.4-1-0.3-1.5,0.2c-0.2-0.3-0.6-0.5,0.2-0.6c-0.5,0-2.9-0.4-2.9,0.3
						c-0.1-0.2-0.7,0-0.8,0c-1,0-1.1-0.1-2.2,0l0.3,0.1c-0.4,0.8-0.9,0.2-1.7,0.3l0-0.1c-1.9-0.6-0.8,0.3-2.7-0.4l0.1,0.5
						c-0.2,1-1.7-0.6-2.8-0.2L98.8,4c-0.6,0.4-1.7-1.4-2.3-1.5c-0.1-0.1,0.2-0.1,0.4-0.2c-1.6-0.6-0.2,0.6-1.4,0.8
						c-0.2-0.3,0.3-0.9-0.5-0.9c-0.4-0.3-2.3,1.1-3.3,0.5c0.2,0.3,0.5,0.5-0.1,0.7c-0.8,0.1-2.2-1-3-0.2C88.5,3,88.5,3,88.5,2.9
						c-0.6,0.2-2.1,0.4-2.4,0.8C85.4,2,82.1,4.5,82.1,3l-2,0.1l0.1-0.2c-1.2-0.1-1.7,0.3-2.1,0.6C77.8,3.4,78,3.3,78,3.2
						c-1.8-0.3-2-0.2-3.5,0.5l-0.2-0.5c-0.4,0.3-2.6-0.8-4.4-0.2c0-0.1,0.1-0.2,0.2-0.2c-2,0.6-4.8-1.4-5.6,0.4l-1.3,0.4
						c1.7,0.1-0.3,0.8,0.5,1.1c-0.7,0.1-1.7-0.5-0.9-0.6l0.1,0.1c0.3-0.9-2.1-0.3-2.1-1c-3.4,0-6.7-0.5-9.8-0.5l0.4,0.7l-1.1,0
						c-0.3-0.2-0.4-0.6,0.4-0.5c-0.4-0.4-1.3,0.3-1.3,0.5c-1.5-0.3,0.6-0.9,0.1-0.9l-0.6,0.1l0.1,0.1c-0.5,0.3-0.6,0.6-1.5,0.6
						c-0.6-0.1-0.3-0.5-0.5-0.5c0-0.1-0.1-0.1-0.4,0l-1.4-0.1l0.6,0.6c-0.6,0.3-1.3,0-0.7,0.6c-0.9-1-5.2-0.4-5.8-0.7
						c-0.9,0.4-1.7,0.4-2.8,0.4c0.3,0.1,0.4,0.8-0.5,0.7c0.3-1.3-1.7-0.6-2.4-1.5c0.7,0.6-2.6,0.2-1.6,1.1c-0.8-0.1,0-0.5-0.6-0.8
						c-1.8,0.5-4-0.3-6.2-0.2c0,0.2,0.3,0.4-0.1,0.7l-1.2-0.9c-0.4,0.1-0.4,1-1.2,0.4c0.1,0.1,0.3,0.4,0,0.4
						c-4.4-0.9-9,0.7-13.4-0.9c0.6,0.3,0.2,0.4-0.3,0.4C9.2,3,8.9,3.4,9,3.6L7.1,2.9c-0.3,0.7-2,0-2.2,0.7l0.6-0.1
						c-0.8,0.7,1.1,1.7,1,2.6c0.9-0.8,2.3,1.3,3.8,0c0.3,0.2-0.3,0.3-0.1,0.5c0.4-0.4,0.8-0.5,1.6-0.3l-0.1,0.1
						c2.3-0.1,3.3,0.3,5.9,0.6l-0.2-0.5c0.6,0.1,0.7,0.2,0.9,0.3c0.6-0.7-1.6,0-1-0.8c0.7,1,3.9,0,4.4,1.1c0.9,0-0.3-0.5,0.6-0.5
						l0.2,0.3l0.2-0.4c0.6,0.1,0.8,0.4,0.9,0.7c-0.1,0-0.4,0.1-0.5,0.1c0.7,0.3,2-0.1,2.3,0l-0.8-0.2c2.3-0.3,5.2,0.1,7.4-0.5
						l-0.2-0.2c1.7-0.4,1.4,0.2,3.3,0.1L35,6.5c0.4-0.2,0.9-0.3,1.4-0.3c-0.5,0.3,0.9,0.5,0.3,0.8c1.9-0.4,0.9-0.3,2.2-1.2l0.3,0.4
						c0.4-0.3,0.5-0.5,1.4-0.6c-0.8,0.3,0.6,0.6-0.3,1c2,0.8,2.9-0.8,3.8,0.4c0.9-1-1.7-0.6-1.2-0.8c-0.4-0.3,0.7-0.8,1.4-0.7
						c0.6,0,1.1,1.3,2.7,1.3c-0.2,0-0.2,0.1-0.3,0.1c0.6,0.3,1.2-0.4,1.9,0.1c0.4-0.6,0.9,0,1.1-0.8l-1.5,0.2c0.8-0.2,1.6-1.1,3-0.7
						c-0.1,0.2-0.5,0.4-0.8,0.5C50.6,6.4,51,6,51.4,6.3c-0.1,0.8-1.8,0.2-2.7,0.8c0.4,0.3,1.7-0.6,1.2,0.3c0.6-1.1,1.6,0.1,2.6-0.7
						l-0.1,0.5c0.2-0.1,0.5-0.3,0.8-0.3l-0.6,0.6c0.9-0.5,1.7,0.5,2.5,0.2c-1.7,0-0.4-0.6-1.1-0.9c2.2-0.6,1.2,1.2,3.7,1
						c-0.3,0.1-1.2-0.3-0.7-0.5c0.5,0.1,1.1,0.3,1.3,0.5c1.6-0.1-0.2-0.5,0.4-0.8c0.5,0.6,0.8-0.2,1.5-0.4l0,0.5
						c1.8,0.3,0.5-1,2.1-0.6L61.9,7l0.9-0.2l-0.2,0.5c0.9-0.4,1.2-0.3,2.1-0.1c-0.2-0.3,0.1-0.9,0.9-0.9c0.6,0.3-0.3,0.5,0.8,0.4
						c-0.3,0.3-0.5,0.7-1,0.2c-0.1,0.2-0.3,0.3-0.3,0.5c0.6,0.3,1.5,0.1,1.9,0.1c-0.2,0-0.4,0-0.4-0.1l1.7-0.7
						c0.3,0.2,0.1,0.3-0.2,0.5c0.3-0.1,0.6-0.3,1.1-0.3c-0.1,0.4-0.1,0.8-0.8,1l1.6-0.4c0.1,0.2,0.8,0.5,0.6,0.6
						c0.9,0.2,2.2-0.8,3.3-0.5c0.1-0.1,0.2-0.1,0.4-0.2c1.1,0.1,2.1,0.6,3.4,0l0.7,0.7c1-0.2-1-0.9,0.7-1.2c1.2-0.2,0.4,0.6,0.9,0.8
						c0.6-0.4,1.6-1.1,2.7-0.5C82.3,7.4,82,7.3,81.6,7.4z M94.2,7c-0.2,0.1-0.7,0.4-0.9,0.1C93.5,6.6,93.7,6.9,94.2,7z M113.2,5.9
						C113,6,112.7,6,112.4,5.8C112.6,5.7,112.9,5.8,113.2,5.9z M166.1,2.5C166.1,2.5,166.1,2.5,166.1,2.5
						C165.6,2.4,165.7,2.4,166.1,2.5z M167.2,2.7c0.1-0.1,0.1-0.1,0.1-0.2c-0.1,0.1-0.3,0.1-0.6,0.1C166.8,2.8,166.9,2.8,167.2,2.7z
						 M46.7,2.9l0.2,0.1C46.4,3.2,46.6,3.1,46.7,2.9z"/>
					<path class="st0" d="M111,6.5c-0.1-0.1-0.1-0.2-0.1-0.3C110.8,6.4,110.8,6.5,111,6.5z"/>
					<path class="st0" d="M73.9,7.6C73.9,7.6,73.8,7.6,73.9,7.6C73.8,7.6,73.8,7.7,73.9,7.6L73.9,7.6z"/>
					<path class="st0" d="M149.9,6.8c-0.2-0.1-0.4-0.2-0.4-0.2C149.4,6.7,149.5,6.8,149.9,6.8z"/>
					<path class="st0" d="M173.2,1.9L172.5,2c0.3,0,0.5,0.1,0.6,0.2C173.1,2.1,173,1.9,173.2,1.9z"/>
					<path class="st0" d="M179.4,4.9c0.1-0.1,0.2,0,0.3-0.1l0-0.2C179.3,4.6,179,4.8,179.4,4.9z"/>
					<path class="st0" d="M173.9,3.5c0.1,0.4,0.5,0.3,1,0.2c0,0-0.1,0-0.1,0C174.9,3.1,174.4,3.3,173.9,3.5z"/>
					<path class="st0" d="M175,3.7c0.2,0,0.3,0,0.5,0C175.5,3.5,175.3,3.6,175,3.7z"/>
					<path class="st0" d="M168.7,2.5c0.2,0.1,0.1-0.5,0.3-0.4C169.2,1.6,167.4,2.7,168.7,2.5z"/>
					<polygon class="st0" points="174.3,4.9 174.1,4.4 173.8,4.8 					"/>
					<path class="st0" d="M170.3,4.5l0.8,0.1c0-0.1,0.1-0.1,0.2-0.2C170.8,4.4,170.3,4.3,170.3,4.5z"/>
					<path class="st0" d="M171.3,4.5c0.3,0,0.5,0,0.6-0.1C171.8,4.4,171.5,4.4,171.3,4.5z"/>
					<polygon class="st0" points="173.2,5 172.9,4.9 172.4,4.9 					"/>
					<path class="st0" d="M161.6,4.4l-0.9,0.1c-0.1,0.2,0.1,0.3,0.5,0.2C161.4,4.6,161.8,4.6,161.6,4.4z"/>
					<path class="st0" d="M164.3,5.8c-0.2-0.1-0.3-0.2-0.4-0.4l0,0.6L164.3,5.8z"/>
					<path class="st0" d="M161.7,5.9c-0.1,0.2-1.3,0.5-0.2,0.5C161.7,6.2,162.5,6.1,161.7,5.9z"/>
					<polygon class="st0" points="148.5,5.1 148.7,5.1 148.7,4.1 					"/>
					<path class="st0" d="M136.8,7.6c1,0.2,0.2-0.6,1.2-0.3c0.2-0.2-0.8-0.2-0.5-0.5C136.9,7,136.5,6.9,136.8,7.6z"/>
					<path class="st0" d="M137.5,6.8c0.1,0,0.2-0.1,0.3-0.2C137.6,6.7,137.6,6.7,137.5,6.8z"/>
					<polygon class="st0" points="5.8,2.4 5.2,2.2 5.6,2.5 					"/>
					<path class="st0" d="M4.6,3.2L4.4,2.5L4,3.1C4.2,3.1,4.4,3,4.6,3.2z"/>
					<path class="st0" d="M96,8.4l0.1-0.2C96,8,95.8,8,95.5,8L96,8.4z"/>
					<polygon class="st0" points="86.9,7.9 87.1,7.9 86.8,7.3 					"/>
					<path class="st0" d="M79.3,8.6c0.3,0,0.7-0.1,1-0.1C79.6,8.6,79.2,7.9,79.3,8.6z"/>
				</g>
			</g>
		</g>
	</g>
</g>
</svg>
